<svg xmlns="http://www.w3.org/2000/svg" xmlns:xlink="http://www.w3.org/1999/xlink" width="240px" height="240px" viewBox="0 0 240 240" version="1.1">
<defs>
<clipPath id="clip1">
  
</clipPath>
<clipPath id="clip2">
  <path d="M 116.558594 14.4375 L 18.277344 64.265625 C 16.226562 65.304688 14.5625 67.835938 14.5625 69.914062 L 14.5625 169.578125 C 14.5625 171.65625 16.226562 174.1875 18.277344 175.226562 L 116.558594 225.054688 C 118.613281 226.097656 121.9375 226.097656 123.988281 225.054688 L 222.273438 175.226562 C 224.328125 174.1875 225.988281 171.65625 225.988281 169.578125 L 225.988281 69.914062 C 225.988281 67.835938 224.328125 65.304688 222.273438 64.265625 L 123.988281 14.4375 C 121.9375 13.394531 118.613281 13.394531 116.558594 14.4375 Z M 116.558594 14.4375 " data-index="1"></path>
</clipPath>
</defs>
<g id="surface1">
<path style="fill-rule: nonzero; fill: rgb(0, 53, 102); fill-opacity: 1; opacity: 1; visibility: visible;" d="M 116.558594 14.4375 L 18.277344 64.265625 C 16.226562 65.304688 14.5625 67.835938 14.5625 69.914062 L 14.5625 169.578125 C 14.5625 171.65625 16.226562 174.1875 18.277344 175.226562 L 116.558594 225.054688 C 118.613281 226.097656 121.9375 226.097656 123.988281 225.054688 L 222.273438 175.226562 C 224.328125 174.1875 225.988281 171.65625 225.988281 169.578125 L 225.988281 69.914062 C 225.988281 67.835938 224.328125 65.304688 222.273438 64.265625 L 123.988281 14.4375 C 121.9375 13.394531 118.613281 13.394531 116.558594 14.4375 Z M 116.558594 14.4375 " data-index="2"></path>
<g clip-path="url(#clip1)" clip-rule="nonzero">
<g clip-path="url(#clip2)" clip-rule="nonzero">

<path style="stroke: none; fill-rule: nonzero; fill: rgb(0, 78, 152); fill-opacity: 1; visibility: hidden;" d="M 319.964844 14.492188 L -79.414062 225 C -81.449219 226.074219 -83.089844 225.25 -83.089844 223.171875 L -83.089844 16.316406 C -83.089844 14.238281 -81.171875 12.550781 -78.800781 12.550781 L 319.355469 12.550781 C 321.722656 12.550781 323.644531 10.867188 323.644531 8.785156 C 323.644531 10.867188 321.996094 13.417969 319.964844 14.492188 Z M 319.964844 14.492188 " data-index="4"></path>
</g>
</g>
<path style="fill-rule: nonzero; fill: rgb(255, 255, 255); fill-opacity: 1; opacity: 1;" d="M 54.378906 149.78125 C 49.578125 149.78125 45.117188 148.976562 40.988281 147.378906 C 36.875 145.761719 33.554688 143.371094 31.03125 140.1875 C 28.519531 137.011719 27.261719 133.078125 27.261719 128.390625 C 27.261719 127.988281 27.273438 127.585938 27.308594 127.191406 C 27.351562 126.785156 27.375 126.441406 27.375 126.167969 L 42.605469 126.167969 C 42.605469 126.246094 42.582031 126.472656 42.539062 126.835938 C 42.492188 127.203125 42.46875 127.519531 42.46875 127.78125 C 42.46875 131.066406 43.574219 133.710938 45.789062 135.71875 C 48 137.726562 51.09375 138.730469 55.074219 138.730469 C 59.480469 138.730469 62.566406 137.878906 64.316406 136.171875 C 66.074219 134.46875 66.960938 132.605469 66.960938 130.597656 C 66.960938 128.25 66.273438 126.371094 64.898438 124.964844 C 63.519531 123.5625 61.703125 122.402344 59.449219 121.5 C 57.207031 120.59375 54.726562 119.773438 52.023438 119.035156 C 49.316406 118.300781 46.585938 117.46875 43.839844 116.535156 C 41.101562 115.589844 38.601562 114.367188 36.347656 112.871094 C 34.105469 111.363281 32.292969 109.40625 30.917969 107.003906 C 29.539062 104.589844 28.855469 101.503906 28.855469 97.746094 C 28.855469 93.386719 30.074219 89.789062 32.511719 86.953125 C 34.960938 84.105469 38.191406 81.980469 42.199219 80.570312 C 46.203125 79.167969 50.53125 78.464844 55.1875 78.464844 C 59.761719 78.464844 63.96875 79.167969 67.8125 80.570312 C 71.671875 81.980469 74.753906 84.171875 77.078125 87.148438 C 79.410156 90.132812 80.574219 94 80.574219 98.75 L 80.574219 99.953125 L 65.59375 99.953125 L 65.59375 99.046875 C 65.59375 96.105469 64.65625 93.78125 62.789062 92.074219 C 60.917969 90.371094 58.304688 89.511719 54.941406 89.511719 C 51.441406 89.511719 48.734375 90.203125 46.820312 91.582031 C 44.921875 92.949219 43.972656 94.703125 43.972656 96.839844 C 43.972656 98.847656 44.652344 100.457031 46.011719 101.664062 C 47.386719 102.875 49.199219 103.878906 51.441406 104.679688 C 53.695312 105.480469 56.203125 106.234375 58.953125 106.945312 C 61.703125 107.640625 64.433594 108.460938 67.140625 109.40625 C 69.84375 110.339844 72.320312 111.5625 74.566406 113.070312 C 76.820312 114.582031 78.628906 116.523438 79.992188 118.898438 C 81.367188 121.277344 82.054688 124.269531 82.054688 127.878906 C 82.054688 133.171875 80.871094 137.414062 78.511719 140.601562 C 76.144531 143.785156 72.886719 146.109375 68.734375 147.574219 C 64.574219 149.042969 59.789062 149.78125 54.378906 149.78125 Z M 54.378906 149.78125 " data-index="5"></path>
<path style="fill-rule: nonzero; fill: rgb(255, 255, 255); fill-opacity: 1; opacity: 1;" d="M 135.597656 161.046875 L 124.269531 149.78125 L 122.902344 149.78125 C 112.765625 149.78125 104.789062 146.875 98.992188 141.054688 C 93.191406 135.226562 90.289062 126.246094 90.289062 114.113281 C 90.289062 101.929688 93.191406 92.941406 98.992188 87.148438 C 104.789062 81.359375 112.765625 78.464844 122.902344 78.464844 C 133.050781 78.464844 141.023438 81.359375 146.808594 87.148438 C 152.609375 92.941406 155.511719 101.929688 155.511719 114.113281 C 155.511719 122.753906 154.019531 129.769531 151.050781 135.167969 C 148.070312 140.5625 143.878906 144.464844 138.464844 146.867188 L 153.5625 161.046875 Z M 122.902344 138.730469 C 128.777344 138.730469 133.164062 136.777344 136.066406 132.863281 C 138.964844 128.9375 140.417969 123.527344 140.417969 116.632812 L 140.417969 111.609375 C 140.417969 104.707031 138.964844 99.296875 136.066406 95.382812 C 133.164062 91.472656 128.777344 89.511719 122.902344 89.511719 C 117.113281 89.511719 112.746094 91.472656 109.804688 95.382812 C 106.871094 99.296875 105.40625 104.707031 105.40625 111.609375 L 105.40625 116.632812 C 105.40625 123.527344 106.871094 128.9375 109.804688 132.863281 C 112.746094 136.777344 117.113281 138.730469 122.902344 138.730469 Z M 122.902344 138.730469 " data-index="6"></path>
<path style="fill-rule: nonzero; fill: rgb(255, 255, 255); fill-opacity: 1; opacity: 1;" d="M 166.261719 148.578125 L 166.261719 79.664062 L 180.910156 79.664062 L 180.910156 136.527344 L 214.082031 136.527344 L 214.082031 148.578125 Z M 166.261719 148.578125 " data-index="7"></path>
</g>
</svg>