<?xml version="1.0" encoding="UTF-8"?>
<svg xmlns="http://www.w3.org/2000/svg" xmlns:xlink="http://www.w3.org/1999/xlink" width="240px" height="240px" viewBox="0 0 240 240" version="1.1">
<g id="surface1">
<path style="fill:none;stroke-width:4;stroke-linecap:butt;stroke-linejoin:round;stroke:rgb(0%,0%,0%);stroke-opacity:1;stroke-miterlimit:10;" d="M 63.019975 200.611706 L 19.806706 25.669573 L 193.036254 75.544948 Z M 63.019975 200.611706 " transform="matrix(1.058341,0,0,1.058341,9.486969,4.500807)"/>
<path style="fill:none;stroke-width:4;stroke-linecap:butt;stroke-linejoin:round;stroke:rgb(0%,0%,0%);stroke-opacity:1;stroke-miterlimit:10;" d="M 106.388262 50.612797 L 127.980132 138.1097 L 41.413341 113.162785 Z M 106.388262 50.612797 " transform="matrix(1.058341,0,0,1.058341,9.486969,4.500807)"/>
<path style="fill:none;stroke-width:4;stroke-linecap:butt;stroke-linejoin:round;stroke:rgb(0%,0%,0%);stroke-opacity:1;stroke-miterlimit:10;" d="M 84.91081 125.029086 L 74.185002 81.564835 L 117.19527 93.910956 Z M 84.91081 125.029086 " transform="matrix(1.058341,0,0,1.058341,9.486969,4.500807)"/>
<path style="fill:none;stroke-width:4;stroke-linecap:butt;stroke-linejoin:round;stroke:rgb(0%,0%,0%);stroke-opacity:1;stroke-miterlimit:10;" d="M 63.459194 38.152257 L 74.181311 81.616508 L 31.174734 69.270387 Z M 63.459194 38.152257 " transform="matrix(1.058341,0,0,1.058341,9.486969,4.500807)"/>
<path style="fill:none;stroke-width:4;stroke-linecap:butt;stroke-linejoin:round;stroke:rgb(0%,0%,0%);stroke-opacity:1;stroke-miterlimit:10;" d="M 149.468657 62.92939 L 160.194465 106.393641 L 117.184197 94.04752 Z M 149.468657 62.92939 " transform="matrix(1.058341,0,0,1.058341,9.486969,4.500807)"/>
<path style="fill:none;stroke-width:4;stroke-linecap:butt;stroke-linejoin:round;stroke:rgb(0%,0%,0%);stroke-opacity:1;stroke-miterlimit:10;" d="M 84.914501 125.058614 L 95.640308 168.526555 L 52.63004 156.180435 Z M 84.914501 125.058614 " transform="matrix(1.058341,0,0,1.058341,9.486969,4.500807)"/>
</g>
</svg>
